<?xml version="1.0" encoding="UTF-8" standalone="no"?>
<svg width="710px" height="607px" viewBox="0 0 710 607" version="1.1" xmlns="http://www.w3.org/2000/svg" xmlns:xlink="http://www.w3.org/1999/xlink" xmlns:sketch="http://www.bohemiancoding.com/sketch/ns">
    <!-- Generator: Sketch 3.3.2 (12043) - http://www.bohemiancoding.com/sketch -->
    <title>pomi logo</title>
    <desc>Created with Sketch.</desc>
    <defs></defs>
    <g id="Page-1" stroke="none" stroke-width="1" fill="none" fill-rule="evenodd" sketch:type="MSPage">
        <g id="Artboard-6-Copy-3" sketch:type="MSArtboardGroup" transform="translate(-606.000000, -577.000000)">
            <g id="pomi-logo" sketch:type="MSLayerGroup" transform="translate(563.000000, 408.000000)">
                <path d="M130.703026,286.3 L130.703026,775.139874 L382.577004,775.139874 L382.577,721.35 L511.51,721.35 C676.038,721.35 723.498,590.044 723.498,503.825 C723.498,395.458 680.784,286.3 453.767,286.3 L130.703026,286.3 Z M379.413,538.629 L379.413,482.468 L426.140032,482.468 C454.616032,482.468 459.276434,497.1015 459.276434,510.5485 C459.276434,523.9955 454.616032,538.628999 426.140032,538.628999 L379.413,538.629 Z" id="P" fill="#FFFFFF" sketch:type="MSShapeGroup"></path>
                <path d="M574.736871,272.739735 L539.80916,267.423999 C539.80916,267.423999 556.445396,396.777398 736.933286,506.718533 C739.52803,479.970405 574.736871,272.739735 574.736871,272.739735 Z" id="Path-46" fill="#9413AE" sketch:type="MSShapeGroup"></path>
                <g id="stem-+-leaves" transform="translate(382.262837, 326.044405) rotate(-12.000000) translate(-382.262837, -326.044405) translate(47.262837, 64.544405)" sketch:type="MSShapeGroup">
                    <path d="M381.07266,191.244661 C354.202146,235.41255 233.867748,345.583639 45.8492735,206.729528 C8.83006842,174.865021 301.37922,149.939783 301.37922,149.939783 C301.37922,149.939783 407.943174,147.076773 381.07266,191.244661 Z" id="Path-47" fill="#9314AD"></path>
                    <path d="M434.211302,207.054325 C434.211302,207.054325 426.623398,179.426732 424.549518,175.975217 C422.475639,172.523702 408.201844,176.60734 402.838028,179.830246 C397.474212,183.053152 389.72194,177.925125 389.72194,177.925125 C389.72194,177.925125 387.119471,194.530828 367.897804,212.524657 C348.676136,230.518485 286.242042,278.31056 191.444423,258.223762 C96.6468044,238.136963 8.19792744,209.378307 6.03250381,205.774433 C3.86708019,202.170559 -0.026502172,198.597479 4.42706677,195.921504 C8.88063571,193.24553 126.091393,119.508328 171.790705,105.998736 C217.490017,92.4891432 262.184705,92.2005899 306.603244,96.4831542 C351.021784,100.765719 373.6679,131.813944 373.6679,131.813944 C373.6679,131.813944 390.017532,152.821108 391.218506,164.562693 C392.41948,176.304278 398.935515,172.636295 398.935515,172.636295 C398.935515,172.636295 418.267374,166.988944 424.448241,167.236325 C430.629108,167.483705 433.546737,171.547477 435.501984,180.217201 C437.457231,188.886925 440.336016,193.925797 440.336016,193.925797 L434.211302,207.054325 Z" id="Path" fill="#C73DE3"></path>
                    <path d="M452.121551,195.368566 C452.121551,195.368566 462.834032,194.327584 465.218656,197.677186 C467.60328,201.026787 485.603996,229.95171 491.275788,240.316746 C496.947581,250.681783 514.526206,299.143786 527.064138,318.908879 C539.60207,338.673972 598.213308,450.853061 602.740977,457.297102 C607.268646,463.741143 642.763832,519.262032 648.89029,521.554351 C655.016749,523.846671 659.106033,517.344277 659.106033,517.344277 C659.106033,517.344277 683.367573,414.411887 658.397567,337.392763 C633.427562,260.373639 563.417088,204.119876 563.417088,204.119876 C563.417088,204.119876 530.341807,181.064899 483.29809,187.206287 C473.235713,190.435097 468.528898,191.884601 468.528898,191.884601 C468.528898,191.884601 455.913604,187.780389 452.065905,187.780389 C448.218206,187.780389 452.121551,195.368566 452.121551,195.368566 Z" id="Path" fill="#C73DE3"></path>
                    <path d="M387.34815,231.96621 C387.34815,231.96621 410.366105,191.17967 453.974165,169.103619 C458.1041,169.124198 468.484888,187.012439 468.484888,187.012439 C468.484888,187.012439 468.872032,189.744294 465.638564,191.674855 C462.405096,193.605415 441.559365,200.153825 425.702008,241.192082 C415.704199,237.671482 387.34815,231.96621 387.34815,231.96621 Z" id="Path-12" fill="#9314AD"></path>
                </g>
            </g>
        </g>
    </g>
</svg>